<?xml version="1.0" encoding="utf-8"?>
<!-- Generator: Adobe Illustrator 26.0.1, SVG Export Plug-In . SVG Version: 6.00 Build 0)  -->
<svg version="1.1" id="Слой_1" xmlns="http://www.w3.org/2000/svg" xmlns:xlink="http://www.w3.org/1999/xlink" x="0px" y="0px"
	 viewBox="0 0 1500 1500" style="enable-background:new 0 0 1500 1500;" xml:space="preserve">
<style type="text/css">
	.st0{fill:#2CD32F;}
</style>
<g>
	<path d="M226.5,129.1c-50.3,43.4-75.4,113.6-75.4,210.7v141.2c0,58.2-9.1,98.3-27.4,120.5c-17.7,22.7-50,34-96.8,34v198.9
		c46.8,0,79.3,11.1,97.6,33.3c17.7,22.2,26.6,62.1,26.6,119.8v166.3c0,99.5,25.4,171.5,76.1,215.9c50.3,44.4,131.6,66.5,243.9,66.5
		H548v-156.7h-32.5c-60.1,0-101.5-11.1-124.2-33.3c-23.2-21.7-34.7-61.6-34.7-119.8V929.6c0-113.3-51-174.5-153-183.3v-22.2
		c102-9.4,153-66.5,153-171.5V373.7c0-58.2,11.3-98.1,34-119.8c22.7-22.2,64.3-33.3,124.9-33.3H548V64h-76.9
		C358.3,64,276.8,85.7,226.5,129.1z"/>
	<path d="M1374.9,601.4c-18.2-22.2-27.4-62.3-27.4-120.5V339.7c0-97.6-24.9-168.1-74.7-211.4C1222.6,85.4,1141,64,1028.2,64h-77.6
		v156.7h33.3c60.1,0,101.5,11.1,124.2,33.3c22.7,21.7,34,61.6,34,119.8v178.9c0,105,51.5,162.1,154.5,171.5v22.2
		c-103,8.9-154.5,70-154.5,183.3v196.6c0,58.2-11.3,98.1-34,119.8c-22.7,22.2-64.1,33.3-124.2,33.3h-33.3V1436h77.6
		c112.4,0,193.7-22.2,243.9-66.5c50.3-44.4,75.4-116.3,75.4-215.9V987.3c0-57.7,9.1-97.6,27.4-119.8c18.2-22.2,50.8-33.3,97.6-33.3
		V635.4C1425.6,635.4,1393.1,624.1,1374.9,601.4z"/>
</g>
<path class="st0" d="M548,429.4v641.1c0,20.2,22.2,32.5,39.3,21.8l510.9-320.6c16-10.1,16-33.5,0-43.5L587.3,407.7
	C570.2,397,548,409.2,548,429.4z"/>
</svg>
